<?xml version="1.0" encoding="UTF-8" standalone="no"?>
<!-- Generator: Adobe Illustrator 16.0.0, SVG Export Plug-In . SVG Version: 6.00 Build 0)  -->

<svg
   xmlns:dc="http://purl.org/dc/elements/1.1/"
   xmlns:cc="http://creativecommons.org/ns#"
   xmlns:rdf="http://www.w3.org/1999/02/22-rdf-syntax-ns#"
   xmlns:svg="http://www.w3.org/2000/svg"
   xmlns="http://www.w3.org/2000/svg"
   xmlns:sodipodi="http://sodipodi.sourceforge.net/DTD/sodipodi-0.dtd"
   xmlns:inkscape="http://www.inkscape.org/namespaces/inkscape"
   version="1.1"
   id="Capa_1"
   x="0px"
   y="0px"
   width="470.59961"
   height="469.9826"
   viewBox="0 0 470.59961 469.98261"
   xml:space="preserve"
   sodipodi:docname="github.svg"
   inkscape:version="0.92.4 (5da689c313, 2019-01-14)"><metadata
   id="metadata43"><rdf:RDF><cc:Work
       rdf:about=""><dc:format>image/svg+xml</dc:format><dc:type
         rdf:resource="http://purl.org/dc/dcmitype/StillImage" /></cc:Work></rdf:RDF></metadata><defs
   id="defs41">
	

		
	</defs><sodipodi:namedview
   pagecolor="#ffffff"
   bordercolor="#666666"
   borderopacity="1"
   objecttolerance="10"
   gridtolerance="10"
   guidetolerance="10"
   inkscape:pageopacity="0"
   inkscape:pageshadow="2"
   inkscape:window-width="1366"
   inkscape:window-height="745"
   id="namedview39"
   showgrid="false"
   inkscape:zoom="0.58756061"
   inkscape:cx="-125.31573"
   inkscape:cy="177.12424"
   inkscape:window-x="-8"
   inkscape:window-y="-8"
   inkscape:window-maximized="1"
   inkscape:current-layer="Capa_1" />

<rect
   style="opacity:1;fill:#ffffff;fill-opacity:1;fill-rule:nonzero;stroke:none;stroke-width:2.60204172;stroke-linecap:square;stroke-linejoin:miter;stroke-miterlimit:4;stroke-dasharray:none;stroke-dashoffset:0;stroke-opacity:1;paint-order:markers stroke fill"
   id="rect4628"
   width="726.89093"
   height="628.20709"
   x="2748.6689"
   y="-898.95477"
   inkscape:export-xdpi="96"
   inkscape:export-ydpi="96" /><g
   id="g8"
   transform="translate(2775.352,-1774.4734)">
</g>
<g
   id="g10"
   transform="translate(2775.352,-1774.4734)">
</g>
<g
   id="g12"
   transform="translate(2775.352,-1774.4734)">
</g>
<g
   id="g14"
   transform="translate(2775.352,-1774.4734)">
</g>
<g
   id="g16"
   transform="translate(2775.352,-1774.4734)">
</g>
<g
   id="g18"
   transform="translate(2775.352,-1774.4734)">
</g>
<g
   id="g20"
   transform="translate(2775.352,-1774.4734)">
</g>
<g
   id="g22"
   transform="translate(2775.352,-1774.4734)">
</g>
<g
   id="g24"
   transform="translate(2775.352,-1774.4734)">
</g>
<g
   id="g26"
   transform="translate(2775.352,-1774.4734)">
</g>
<g
   id="g28"
   transform="translate(2775.352,-1774.4734)">
</g>
<g
   id="g30"
   transform="translate(2775.352,-1774.4734)">
</g>
<g
   id="g32"
   transform="translate(2775.352,-1774.4734)">
</g>
<g
   id="g34"
   transform="translate(2775.352,-1774.4734)">
</g>
<g
   id="g36"
   transform="translate(2775.352,-1774.4734)">
</g>
<g
   id="g4672"
   transform="translate(2775.352,-1774.4734)"><rect
     y="1859.5215"
     x="-2727.0574"
     height="384.64117"
     width="365.91971"
     id="rect4668"
     style="opacity:1;fill:#ffffff;fill-opacity:1;fill-rule:nonzero;stroke:none;stroke-width:8.37447643;stroke-linecap:square;stroke-linejoin:miter;stroke-miterlimit:4;stroke-dasharray:none;stroke-dashoffset:0;stroke-opacity:1;paint-order:markers stroke fill" /><path
     inkscape:connector-curvature="0"
     id="rect4610"
     d="m -2775.352,1774.4736 v 469.9824 h 25.9473 v -0.293 h 148.6406 c 4.5263,-1.034 7.7172,-4.2052 7.8945,-8.9766 0.5592,-15.1528 0.1661,-30.3367 0.1661,-44.9863 -10.9822,0.5124 -21.4679,1.8984 -31.834,1.3008 -22.8632,-1.3167 -40.4313,-11.0715 -49.543,-33.459 -5.3973,-13.263 -13.5313,-24.6079 -26.1973,-32.1777 -2.3653,-1.415 -4.4342,-3.4977 -6.2441,-5.6133 -2.3653,-2.7593 -1.9209,-5.5942 1.8164,-6.3516 3.7703,-0.7667 7.8893,-1.3026 11.6074,-0.6074 14.6027,2.741 24.7,11.8988 32.4297,24.0801 15.2841,24.0992 38.809,31.4786 65.2774,20.3496 1.4757,-0.6207 3.3527,-2.1253 3.6308,-3.498 2.1341,-10.668 6.1217,-20.3961 14.1563,-28.9239 -8.9327,-1.6547 -17.2059,-2.8725 -25.3203,-4.7539 -23.3664,-5.4066 -44.3589,-15.1344 -59.709,-34.4531 -12.524,-15.7588 -18.2522,-34.2061 -20.8848,-53.8398 -4.1229,-30.7518 -0.4311,-59.5366 20.6875,-84.1114 1.067,-1.2414 1.6467,-3.7837 1.1719,-5.3301 -5.289,-17.2822 -4.4825,-34.4203 0.7597,-51.5097 2.0632,-6.7312 3.0107,-8.6672 7.2188,-8.6856 1.4027,-0.01 3.1674,0.2011 5.457,0.5137 0.56,0.075 1.1028,0.2161 1.6582,0.3106 18.3584,3.0375 34.1625,11.9285 49.7285,21.4726 2.0926,1.2836 5.2789,2.0807 7.5782,1.5215 37.1785,-9.0217 74.2869,-8.9841 111.4609,0.033 2.1579,0.5216 5.0402,-0.2199 7.1035,-1.3008 8.4625,-4.4241 16.5639,-9.5674 25.1348,-13.7617 9.9713,-4.875 20.4739,-8.5438 31.7812,-8.3418 1.9789,0.038 5.039,1.9285 5.7012,3.6777 6.8032,18.0249 8.2375,36.3937 2.8164,55.1524 -0.5785,2.0027 0.2824,4.8558 1.3594,6.8301 5.3505,9.8168 12.8196,18.8762 16.2051,29.289 10.32,31.7391 6.5598,63.17 -7.4883,93 -12.8727,27.3433 -36.7462,41.1973 -65.0059,48.3438 -9.5442,2.4122 -19.3229,3.8785 -29.6191,5.9004 13.4927,14.095 15.6088,31.2966 15.3691,49.3125 -0.2489,18.5842 -0.1833,37.1747 -0.1933,55.7636 -0.01,7.6868 2.8674,12.4242 7.9746,13.8301 h 135.289 v 0.293 h 26.6172 v -469.9824 z"
     style="opacity:1;fill:#000000;fill-opacity:1;fill-rule:nonzero;stroke:none;stroke-width:2.6556673;stroke-linecap:square;stroke-linejoin:miter;stroke-miterlimit:4;stroke-dasharray:none;stroke-dashoffset:0;stroke-opacity:1;paint-order:markers stroke fill" /></g></svg>